<mxfile host="Electron" modified="2024-03-04T06:55:37.830Z" agent="Mozilla/5.0 (Windows NT 10.0; Win64; x64) AppleWebKit/537.36 (KHTML, like Gecko) draw.io/23.1.5 Chrome/120.0.6099.109 Electron/28.1.0 Safari/537.36" etag="ImO95xT-ZHTIS-8P-ZsZ" version="23.1.5" type="device">
  <diagram name="Page-1" id="49_npndzri3HrDamShHA">
    <mxGraphModel dx="1235" dy="787" grid="1" gridSize="10" guides="1" tooltips="1" connect="1" arrows="1" fold="1" page="1" pageScale="1" pageWidth="850" pageHeight="1100" math="0" shadow="0">
      <root>
        <mxCell id="0" />
        <mxCell id="1" parent="0" />
        <mxCell id="VP9r_j6y-844BlgBZl-N-4" value="" style="edgeStyle=orthogonalEdgeStyle;rounded=0;orthogonalLoop=1;jettySize=auto;html=1;" edge="1" parent="1" source="VP9r_j6y-844BlgBZl-N-1" target="VP9r_j6y-844BlgBZl-N-2">
          <mxGeometry relative="1" as="geometry" />
        </mxCell>
        <mxCell id="VP9r_j6y-844BlgBZl-N-9" value="" style="edgeStyle=orthogonalEdgeStyle;rounded=0;orthogonalLoop=1;jettySize=auto;html=1;" edge="1" parent="1" source="VP9r_j6y-844BlgBZl-N-1" target="VP9r_j6y-844BlgBZl-N-8">
          <mxGeometry relative="1" as="geometry" />
        </mxCell>
        <mxCell id="VP9r_j6y-844BlgBZl-N-1" value="&lt;font face=&quot;JetBrains Mono&quot; style=&quot;font-size: 18px;&quot;&gt;&lt;b&gt;Global Execution Context&lt;/b&gt;&lt;/font&gt;" style="rounded=1;whiteSpace=wrap;html=1;fillColor=#e3c800;strokeColor=#B09500;fontColor=#000000;" vertex="1" parent="1">
          <mxGeometry x="70" y="40" width="150" height="80" as="geometry" />
        </mxCell>
        <mxCell id="VP9r_j6y-844BlgBZl-N-7" value="" style="edgeStyle=orthogonalEdgeStyle;rounded=0;orthogonalLoop=1;jettySize=auto;html=1;" edge="1" parent="1" source="VP9r_j6y-844BlgBZl-N-2" target="VP9r_j6y-844BlgBZl-N-6">
          <mxGeometry relative="1" as="geometry">
            <Array as="points">
              <mxPoint x="320" y="170" />
              <mxPoint x="320" y="170" />
            </Array>
          </mxGeometry>
        </mxCell>
        <mxCell id="VP9r_j6y-844BlgBZl-N-2" value="&lt;font style=&quot;font-size: 18px;&quot;&gt;&lt;b&gt;Memory Creation Phase&lt;/b&gt;&lt;/font&gt;" style="rounded=1;whiteSpace=wrap;html=1;fillColor=#1ba1e2;fontColor=#ffffff;strokeColor=#006EAF;" vertex="1" parent="1">
          <mxGeometry x="260" y="40" width="130" height="80" as="geometry" />
        </mxCell>
        <mxCell id="VP9r_j6y-844BlgBZl-N-11" value="" style="edgeStyle=orthogonalEdgeStyle;rounded=0;orthogonalLoop=1;jettySize=auto;html=1;fillColor=#f5f5f5;strokeColor=#ffffff;strokeWidth=1;" edge="1" parent="1" source="VP9r_j6y-844BlgBZl-N-3" target="VP9r_j6y-844BlgBZl-N-10">
          <mxGeometry relative="1" as="geometry" />
        </mxCell>
        <mxCell id="VP9r_j6y-844BlgBZl-N-3" value="&lt;font style=&quot;font-size: 18px;&quot;&gt;&lt;b&gt;Execution Phase&lt;/b&gt;&lt;/font&gt;" style="rounded=1;whiteSpace=wrap;html=1;fillColor=#60a917;fontColor=#ffffff;strokeColor=#2D7600;" vertex="1" parent="1">
          <mxGeometry x="525" y="40" width="140" height="80" as="geometry" />
        </mxCell>
        <mxCell id="VP9r_j6y-844BlgBZl-N-12" style="edgeStyle=orthogonalEdgeStyle;rounded=0;orthogonalLoop=1;jettySize=auto;html=1;entryX=0;entryY=0.5;entryDx=0;entryDy=0;" edge="1" parent="1" source="VP9r_j6y-844BlgBZl-N-6" target="VP9r_j6y-844BlgBZl-N-3">
          <mxGeometry relative="1" as="geometry">
            <Array as="points">
              <mxPoint x="440" y="265" />
              <mxPoint x="440" y="80" />
            </Array>
          </mxGeometry>
        </mxCell>
        <mxCell id="VP9r_j6y-844BlgBZl-N-6" value="&lt;ol&gt;&lt;li&gt;val1 = undefined&lt;/li&gt;&lt;li&gt;val2 = undefined&lt;/li&gt;&lt;li&gt;addNums() = [function definition / body]&lt;/li&gt;&lt;li&gt;result1 = undefined&lt;/li&gt;&lt;li&gt;result2 = undefined&lt;/li&gt;&lt;/ol&gt;" style="rounded=1;whiteSpace=wrap;html=1;align=left;" vertex="1" parent="1">
          <mxGeometry x="110" y="220" width="260" height="90" as="geometry" />
        </mxCell>
        <mxCell id="VP9r_j6y-844BlgBZl-N-8" value="&lt;b&gt;this&lt;/b&gt;" style="rounded=1;whiteSpace=wrap;html=1;" vertex="1" parent="1">
          <mxGeometry x="105" y="160" width="80" height="30" as="geometry" />
        </mxCell>
        <mxCell id="VP9r_j6y-844BlgBZl-N-14" value="" style="edgeStyle=orthogonalEdgeStyle;rounded=0;orthogonalLoop=1;jettySize=auto;html=1;strokeWidth=3;fillColor=#e3c800;strokeColor=#B09500;" edge="1" parent="1" source="VP9r_j6y-844BlgBZl-N-10" target="VP9r_j6y-844BlgBZl-N-13">
          <mxGeometry relative="1" as="geometry">
            <Array as="points">
              <mxPoint x="740" y="195" />
              <mxPoint x="740" y="80" />
            </Array>
          </mxGeometry>
        </mxCell>
        <mxCell id="VP9r_j6y-844BlgBZl-N-16" value="" style="edgeStyle=orthogonalEdgeStyle;rounded=0;orthogonalLoop=1;jettySize=auto;html=1;" edge="1" parent="1" source="VP9r_j6y-844BlgBZl-N-10" target="VP9r_j6y-844BlgBZl-N-15">
          <mxGeometry relative="1" as="geometry" />
        </mxCell>
        <mxCell id="VP9r_j6y-844BlgBZl-N-28" style="edgeStyle=orthogonalEdgeStyle;rounded=0;orthogonalLoop=1;jettySize=auto;html=1;entryX=0;entryY=0.5;entryDx=0;entryDy=0;fillColor=#e3c800;strokeColor=#B09500;strokeWidth=3;" edge="1" parent="1" source="VP9r_j6y-844BlgBZl-N-10" target="VP9r_j6y-844BlgBZl-N-25">
          <mxGeometry relative="1" as="geometry" />
        </mxCell>
        <mxCell id="VP9r_j6y-844BlgBZl-N-10" value="&lt;ol&gt;&lt;li&gt;&amp;nbsp;val1 = 10&lt;/li&gt;&lt;li&gt;&amp;nbsp;val2 = 20&lt;/li&gt;&lt;li&gt;result1 = addNums(val1,val2)&lt;/li&gt;&lt;li&gt;result1 = 30&lt;/li&gt;&lt;/ol&gt;" style="whiteSpace=wrap;html=1;rounded=1;align=left;" vertex="1" parent="1">
          <mxGeometry x="490" y="160" width="210" height="70" as="geometry" />
        </mxCell>
        <mxCell id="VP9r_j6y-844BlgBZl-N-43" style="edgeStyle=orthogonalEdgeStyle;rounded=0;orthogonalLoop=1;jettySize=auto;html=1;entryX=0;entryY=0.5;entryDx=0;entryDy=0;strokeWidth=3;fillColor=#e3c800;strokeColor=#B09500;" edge="1" parent="1" source="VP9r_j6y-844BlgBZl-N-15" target="VP9r_j6y-844BlgBZl-N-39">
          <mxGeometry relative="1" as="geometry">
            <Array as="points">
              <mxPoint x="680" y="410" />
            </Array>
          </mxGeometry>
        </mxCell>
        <mxCell id="VP9r_j6y-844BlgBZl-N-44" style="edgeStyle=orthogonalEdgeStyle;rounded=0;orthogonalLoop=1;jettySize=auto;html=1;entryX=0;entryY=0.5;entryDx=0;entryDy=0;fillColor=#e3c800;strokeColor=#B09500;strokeWidth=3;" edge="1" parent="1" source="VP9r_j6y-844BlgBZl-N-15" target="VP9r_j6y-844BlgBZl-N-35">
          <mxGeometry relative="1" as="geometry">
            <Array as="points">
              <mxPoint x="680" y="525" />
            </Array>
          </mxGeometry>
        </mxCell>
        <mxCell id="VP9r_j6y-844BlgBZl-N-46" style="edgeStyle=orthogonalEdgeStyle;rounded=0;orthogonalLoop=1;jettySize=auto;html=1;entryX=1;entryY=0.5;entryDx=0;entryDy=0;" edge="1" parent="1" source="VP9r_j6y-844BlgBZl-N-15" target="VP9r_j6y-844BlgBZl-N-45">
          <mxGeometry relative="1" as="geometry">
            <mxPoint x="520" y="350" as="targetPoint" />
            <Array as="points">
              <mxPoint x="595" y="350" />
            </Array>
          </mxGeometry>
        </mxCell>
        <mxCell id="VP9r_j6y-844BlgBZl-N-15" value="&lt;div&gt;&lt;span style=&quot;white-space: pre;&quot;&gt;&#x9;&lt;/span&gt;4. result2 = addNums(20,30)&lt;br&gt;&lt;/div&gt;&lt;div&gt;&lt;span style=&quot;white-space: pre;&quot;&gt;&#x9;&lt;/span&gt;5. result2 = 50&lt;br&gt;&lt;/div&gt;" style="whiteSpace=wrap;html=1;rounded=1;align=left;" vertex="1" parent="1">
          <mxGeometry x="490" y="250" width="210" height="60" as="geometry" />
        </mxCell>
        <mxCell id="VP9r_j6y-844BlgBZl-N-27" style="edgeStyle=orthogonalEdgeStyle;rounded=0;orthogonalLoop=1;jettySize=auto;html=1;entryX=0.5;entryY=0;entryDx=0;entryDy=0;" edge="1" parent="1" source="VP9r_j6y-844BlgBZl-N-22" target="VP9r_j6y-844BlgBZl-N-25">
          <mxGeometry relative="1" as="geometry">
            <Array as="points">
              <mxPoint x="1095" y="130" />
              <mxPoint x="885" y="130" />
            </Array>
          </mxGeometry>
        </mxCell>
        <mxCell id="VP9r_j6y-844BlgBZl-N-24" value="" style="edgeStyle=orthogonalEdgeStyle;rounded=0;orthogonalLoop=1;jettySize=auto;html=1;" edge="1" parent="1" source="VP9r_j6y-844BlgBZl-N-25" target="VP9r_j6y-844BlgBZl-N-26">
          <mxGeometry relative="1" as="geometry" />
        </mxCell>
        <mxCell id="VP9r_j6y-844BlgBZl-N-25" value="&lt;b&gt;&lt;font style=&quot;font-size: 14px;&quot;&gt;Execution Phase&lt;/font&gt;&lt;/b&gt;" style="whiteSpace=wrap;html=1;align=center;rounded=1;fillColor=#60a917;fontColor=#ffffff;strokeColor=#2D7600;" vertex="1" parent="1">
          <mxGeometry x="825" y="165" width="120" height="60" as="geometry" />
        </mxCell>
        <mxCell id="VP9r_j6y-844BlgBZl-N-32" style="edgeStyle=orthogonalEdgeStyle;rounded=0;orthogonalLoop=1;jettySize=auto;html=1;entryX=1;entryY=0.5;entryDx=0;entryDy=0;" edge="1" parent="1" source="VP9r_j6y-844BlgBZl-N-26" target="VP9r_j6y-844BlgBZl-N-31">
          <mxGeometry relative="1" as="geometry">
            <Array as="points">
              <mxPoint x="1105" y="280" />
            </Array>
          </mxGeometry>
        </mxCell>
        <mxCell id="VP9r_j6y-844BlgBZl-N-26" value="&lt;ol&gt;&lt;li style=&quot;&quot;&gt;&lt;span style=&quot;font-size: 14px;&quot;&gt;&lt;font face=&quot;JetBrains Mono&quot;&gt;num1 = val1 = 10&lt;/font&gt;&lt;/span&gt;&lt;/li&gt;&lt;li style=&quot;&quot;&gt;&lt;span style=&quot;font-size: 14px;&quot;&gt;&lt;font face=&quot;JetBrains Mono&quot;&gt;num2 = val2 = 20&lt;/font&gt;&lt;/span&gt;&lt;/li&gt;&lt;li style=&quot;&quot;&gt;&lt;span style=&quot;font-size: 14px;&quot;&gt;&lt;font face=&quot;JetBrains Mono&quot;&gt;total = 30&lt;/font&gt;&lt;/span&gt;&lt;/li&gt;&lt;/ol&gt;" style="whiteSpace=wrap;html=1;align=left;rounded=1;" vertex="1" parent="1">
          <mxGeometry x="995" y="160" width="220" height="70" as="geometry" />
        </mxCell>
        <mxCell id="VP9r_j6y-844BlgBZl-N-29" value="&lt;font face=&quot;JetBrains Mono&quot;&gt;JS Script Execution&amp;nbsp; - Main thread&lt;/font&gt;" style="swimlane;whiteSpace=wrap;html=1;" vertex="1" parent="1">
          <mxGeometry x="45" width="675" height="380" as="geometry" />
        </mxCell>
        <mxCell id="VP9r_j6y-844BlgBZl-N-45" value="&lt;div&gt;&lt;b&gt;&lt;font face=&quot;JetBrains Mono&quot;&gt;End of Main Thread execution&lt;/font&gt;&lt;/b&gt;&lt;/div&gt;" style="whiteSpace=wrap;html=1;rounded=1;align=center;fillColor=#e51400;fontColor=#ffffff;strokeColor=#B20000;" vertex="1" parent="VP9r_j6y-844BlgBZl-N-29">
          <mxGeometry x="270" y="330" width="210" height="40" as="geometry" />
        </mxCell>
        <mxCell id="VP9r_j6y-844BlgBZl-N-30" value="&lt;font face=&quot;JetBrains Mono&quot;&gt;addNums(val1,val2) Variable Env + Executioin thread&lt;/font&gt;" style="swimlane;whiteSpace=wrap;html=1;" vertex="1" parent="1">
          <mxGeometry x="765" y="10" width="510" height="310" as="geometry" />
        </mxCell>
        <mxCell id="VP9r_j6y-844BlgBZl-N-13" value="&lt;b&gt;&lt;font style=&quot;font-size: 14px;&quot;&gt;Memory Creation Phase&amp;nbsp;&lt;/font&gt;&lt;/b&gt;" style="whiteSpace=wrap;html=1;align=center;rounded=1;fillColor=#1ba1e2;fontColor=#ffffff;strokeColor=#006EAF;" vertex="1" parent="VP9r_j6y-844BlgBZl-N-30">
          <mxGeometry x="60" y="40" width="120" height="60" as="geometry" />
        </mxCell>
        <mxCell id="VP9r_j6y-844BlgBZl-N-22" value="&lt;ol&gt;&lt;li style=&quot;&quot;&gt;&lt;span style=&quot;font-size: 14px;&quot;&gt;&lt;font face=&quot;JetBrains Mono&quot;&gt;num1 = undefined&lt;/font&gt;&lt;/span&gt;&lt;/li&gt;&lt;li style=&quot;&quot;&gt;&lt;span style=&quot;font-size: 14px;&quot;&gt;&lt;font face=&quot;JetBrains Mono&quot;&gt;num2 = undefined&lt;/font&gt;&lt;/span&gt;&lt;/li&gt;&lt;li style=&quot;&quot;&gt;&lt;span style=&quot;font-size: 14px;&quot;&gt;&lt;font face=&quot;JetBrains Mono&quot;&gt;total = undefined&lt;/font&gt;&lt;/span&gt;&lt;/li&gt;&lt;/ol&gt;" style="whiteSpace=wrap;html=1;align=left;rounded=1;" vertex="1" parent="VP9r_j6y-844BlgBZl-N-30">
          <mxGeometry x="220" y="35" width="220" height="70" as="geometry" />
        </mxCell>
        <mxCell id="VP9r_j6y-844BlgBZl-N-23" value="" style="edgeStyle=orthogonalEdgeStyle;rounded=0;orthogonalLoop=1;jettySize=auto;html=1;" edge="1" parent="VP9r_j6y-844BlgBZl-N-30" source="VP9r_j6y-844BlgBZl-N-13" target="VP9r_j6y-844BlgBZl-N-22">
          <mxGeometry relative="1" as="geometry" />
        </mxCell>
        <mxCell id="VP9r_j6y-844BlgBZl-N-31" value="&lt;b&gt;&lt;font style=&quot;font-size: 14px;&quot;&gt;Deletion&lt;/font&gt;&lt;/b&gt;" style="whiteSpace=wrap;html=1;align=center;rounded=1;fillColor=#e51400;fontColor=#ffffff;strokeColor=#B20000;" vertex="1" parent="VP9r_j6y-844BlgBZl-N-30">
          <mxGeometry x="60" y="240" width="120" height="60" as="geometry" />
        </mxCell>
        <mxCell id="VP9r_j6y-844BlgBZl-N-33" style="edgeStyle=orthogonalEdgeStyle;rounded=0;orthogonalLoop=1;jettySize=auto;html=1;entryX=0.5;entryY=0;entryDx=0;entryDy=0;" edge="1" parent="1" source="VP9r_j6y-844BlgBZl-N-40" target="VP9r_j6y-844BlgBZl-N-35">
          <mxGeometry relative="1" as="geometry">
            <Array as="points">
              <mxPoint x="1095" y="460" />
              <mxPoint x="885" y="460" />
            </Array>
          </mxGeometry>
        </mxCell>
        <mxCell id="VP9r_j6y-844BlgBZl-N-34" value="" style="edgeStyle=orthogonalEdgeStyle;rounded=0;orthogonalLoop=1;jettySize=auto;html=1;" edge="1" parent="1" source="VP9r_j6y-844BlgBZl-N-35" target="VP9r_j6y-844BlgBZl-N-37">
          <mxGeometry relative="1" as="geometry" />
        </mxCell>
        <mxCell id="VP9r_j6y-844BlgBZl-N-35" value="&lt;b&gt;&lt;font style=&quot;font-size: 14px;&quot;&gt;Execution Phase&lt;/font&gt;&lt;/b&gt;" style="whiteSpace=wrap;html=1;align=center;rounded=1;fillColor=#60a917;fontColor=#ffffff;strokeColor=#2D7600;" vertex="1" parent="1">
          <mxGeometry x="825" y="495" width="120" height="60" as="geometry" />
        </mxCell>
        <mxCell id="VP9r_j6y-844BlgBZl-N-36" style="edgeStyle=orthogonalEdgeStyle;rounded=0;orthogonalLoop=1;jettySize=auto;html=1;entryX=1;entryY=0.5;entryDx=0;entryDy=0;" edge="1" parent="1" source="VP9r_j6y-844BlgBZl-N-37" target="VP9r_j6y-844BlgBZl-N-42">
          <mxGeometry relative="1" as="geometry">
            <Array as="points">
              <mxPoint x="1105" y="610" />
            </Array>
          </mxGeometry>
        </mxCell>
        <mxCell id="VP9r_j6y-844BlgBZl-N-37" value="&lt;ol&gt;&lt;li style=&quot;&quot;&gt;&lt;span style=&quot;font-size: 14px;&quot;&gt;&lt;font face=&quot;JetBrains Mono&quot;&gt;num1 = val1 = 10&lt;/font&gt;&lt;/span&gt;&lt;/li&gt;&lt;li style=&quot;&quot;&gt;&lt;span style=&quot;font-size: 14px;&quot;&gt;&lt;font face=&quot;JetBrains Mono&quot;&gt;num2 = val2 = 20&lt;/font&gt;&lt;/span&gt;&lt;/li&gt;&lt;li style=&quot;&quot;&gt;&lt;span style=&quot;font-size: 14px;&quot;&gt;&lt;font face=&quot;JetBrains Mono&quot;&gt;total = 30&lt;/font&gt;&lt;/span&gt;&lt;/li&gt;&lt;/ol&gt;" style="whiteSpace=wrap;html=1;align=left;rounded=1;" vertex="1" parent="1">
          <mxGeometry x="995" y="490" width="220" height="70" as="geometry" />
        </mxCell>
        <mxCell id="VP9r_j6y-844BlgBZl-N-38" value="&lt;font face=&quot;JetBrains Mono&quot;&gt;addNums(10,20) Variable Env + Executioin thread&lt;/font&gt;" style="swimlane;whiteSpace=wrap;html=1;" vertex="1" parent="1">
          <mxGeometry x="765" y="340" width="510" height="310" as="geometry" />
        </mxCell>
        <mxCell id="VP9r_j6y-844BlgBZl-N-39" value="&lt;b&gt;&lt;font style=&quot;font-size: 14px;&quot;&gt;Memory Creation Phase&amp;nbsp;&lt;/font&gt;&lt;/b&gt;" style="whiteSpace=wrap;html=1;align=center;rounded=1;fillColor=#1ba1e2;fontColor=#ffffff;strokeColor=#006EAF;" vertex="1" parent="VP9r_j6y-844BlgBZl-N-38">
          <mxGeometry x="60" y="40" width="120" height="60" as="geometry" />
        </mxCell>
        <mxCell id="VP9r_j6y-844BlgBZl-N-40" value="&lt;ol&gt;&lt;li style=&quot;&quot;&gt;&lt;span style=&quot;font-size: 14px;&quot;&gt;&lt;font face=&quot;JetBrains Mono&quot;&gt;num1 = undefined&lt;/font&gt;&lt;/span&gt;&lt;/li&gt;&lt;li style=&quot;&quot;&gt;&lt;span style=&quot;font-size: 14px;&quot;&gt;&lt;font face=&quot;JetBrains Mono&quot;&gt;num2 = undefined&lt;/font&gt;&lt;/span&gt;&lt;/li&gt;&lt;li style=&quot;&quot;&gt;&lt;span style=&quot;font-size: 14px;&quot;&gt;&lt;font face=&quot;JetBrains Mono&quot;&gt;total = undefined&lt;/font&gt;&lt;/span&gt;&lt;/li&gt;&lt;/ol&gt;" style="whiteSpace=wrap;html=1;align=left;rounded=1;" vertex="1" parent="VP9r_j6y-844BlgBZl-N-38">
          <mxGeometry x="220" y="35" width="220" height="70" as="geometry" />
        </mxCell>
        <mxCell id="VP9r_j6y-844BlgBZl-N-41" value="" style="edgeStyle=orthogonalEdgeStyle;rounded=0;orthogonalLoop=1;jettySize=auto;html=1;" edge="1" parent="VP9r_j6y-844BlgBZl-N-38" source="VP9r_j6y-844BlgBZl-N-39" target="VP9r_j6y-844BlgBZl-N-40">
          <mxGeometry relative="1" as="geometry" />
        </mxCell>
        <mxCell id="VP9r_j6y-844BlgBZl-N-42" value="&lt;b&gt;&lt;font style=&quot;font-size: 14px;&quot;&gt;Deletion&lt;/font&gt;&lt;/b&gt;" style="whiteSpace=wrap;html=1;align=center;rounded=1;fillColor=#e51400;fontColor=#ffffff;strokeColor=#B20000;" vertex="1" parent="VP9r_j6y-844BlgBZl-N-38">
          <mxGeometry x="60" y="240" width="120" height="60" as="geometry" />
        </mxCell>
      </root>
    </mxGraphModel>
  </diagram>
</mxfile>
